HIERARCHY
ROOT SpineBase
{
  OFFSET 0.000000 0.000000 0.000000
  CHANNELS 6 Xposition Yposition Zposition Zrotation Xrotation Yrotation
  JOINT SpineMid
  {
    OFFSET 0.000000 28.441677 0.000000
    CHANNELS 3 Zrotation Xrotation Yrotation
    JOINT SpineShoulder
    {
      OFFSET -0.225319 21.258242 -0.754882
      CHANNELS 3 Zrotation Xrotation Yrotation
      JOINT Neck
      {
        OFFSET -0.157827 7.083441 -0.560823
        CHANNELS 3 Zrotation Xrotation Yrotation
        JOINT Head
        {
          OFFSET -6.777221 11.188781 3.824163
          CHANNELS 3 Zrotation Xrotation Yrotation
          End Site
          {
            OFFSET 0 0 0
          }
        }
      }
      JOINT ShoulderLeft
      {
        OFFSET -5.679251 -6.672718 11.654431
        CHANNELS 3 Zrotation Xrotation Yrotation
        JOINT ElbowLeft
        {
          OFFSET 1.290222 -22.262893 9.604262
          CHANNELS 3 Zrotation Xrotation Yrotation
          JOINT WristLeft
          {
            OFFSET 1.690437 -23.828346 -8.492987
            CHANNELS 3 Zrotation Xrotation Yrotation
            JOINT HandLeft
            {
              OFFSET -3.609439 -11.464210 -1.997894
              CHANNELS 3 Zrotation Xrotation Yrotation
              JOINT HandTipLeft
              {
                OFFSET 0.567734 -2.628538 -0.316766
                CHANNELS 3 Zrotation Xrotation Yrotation
                End Site
                {
                  OFFSET 0 0 0
                }
              }
              JOINT ThumbLeft
              {
                OFFSET -0.273686 0.376708 -1.725702
                CHANNELS 3 Zrotation Xrotation Yrotation
                End Site
                {
                  OFFSET 0 0 0
                }
              }
            }
          }
        }
      }
      JOINT ShoulderRight
      {
        OFFSET 3.224836 -2.965574 -13.168260
        CHANNELS 3 Zrotation Xrotation Yrotation
        JOINT ElbowRight
        {
          OFFSET 0.809812 -23.882519 -7.070396
          CHANNELS 3 Zrotation Xrotation Yrotation
          JOINT WristRight
          {
            OFFSET -4.443134 -21.096747 0.677686
            CHANNELS 3 Zrotation Xrotation Yrotation
            JOINT HandRight
            {
              OFFSET -0.656491 -7.356656 2.549471
              CHANNELS 3 Zrotation Xrotation Yrotation
              JOINT HandTipRight
              {
                OFFSET -1.223935 -8.035795 0.928123
                CHANNELS 3 Zrotation Xrotation Yrotation
                End Site
                {
                  OFFSET 0 0 0
                }
              }
              JOINT ThumbRight
              {
                OFFSET -5.808259 2.292847 3.888053
                CHANNELS 3 Zrotation Xrotation Yrotation
                End Site
                {
                  OFFSET 0 0 0
                }
              }
            }
          }
        }
      }
    }
  }
  JOINT HipLeft
  {
    OFFSET -3.081370 0.668732 2.252051
    CHANNELS 3 Zrotation Xrotation Yrotation
    JOINT KneeLeft
    {
      OFFSET 7.931457 -36.457941 -12.757636
      CHANNELS 3 Zrotation Xrotation Yrotation
      JOINT AnkleLeft
      {
        OFFSET 10.371697 -26.817548 -5.711456
        CHANNELS 3 Zrotation Xrotation Yrotation
        JOINT FootLeft
        {
          OFFSET -6.377323 -1.141064 3.824071
          CHANNELS 3 Zrotation Xrotation Yrotation
          End Site
          {
            OFFSET 0 0 0
          }
        }
      }
    }
  }
  JOINT HipRight
  {
    OFFSET 1.584371 2.414797 -8.061358
    CHANNELS 3 Zrotation Xrotation Yrotation
    JOINT KneeRight
    {
      OFFSET 5.776372 -29.655422 -4.227791
      CHANNELS 3 Zrotation Xrotation Yrotation
      JOINT AnkleRight
      {
        OFFSET 8.220936 -31.270971 -3.637439
        CHANNELS 3 Zrotation Xrotation Yrotation
        JOINT FootRight
        {
          OFFSET -3.321582 -6.384028 -0.760854
          CHANNELS 3 Zrotation Xrotation Yrotation
          End Site
          {
            OFFSET 0 0 0
          }
        }
      }
    }
  }
}
MOTION
Frames: 14
Frame Time: 0.033333
55.462382 65.082798 223.449129 -0.000000 0.000000 65.658213 -0.000000 0.000000 -65.658213 -0.000000 0.000000 0.000000 -0.000000 0.000000 0.000000 0.000000 0.000000 0.000000 -0.000000 0.000000 0.000000 -0.000000 0.000000 0.000000 -0.000000 0.000000 0.000000 -0.000000 0.000000 0.000000 0.000000 0.000000 0.000000 0.000000 0.000000 0.000000 -0.000000 0.000000 0.000000 -0.000000 0.000000 0.000000 -0.000000 0.000000 0.000000 -0.000000 0.000000 0.000000 0.000000 0.000000 0.000000 0.000000 0.000000 0.000000 -0.000000 0.000000 -65.658213 -0.000000 0.000000 0.000000 -0.000000 0.000000 0.000000 0.000000 0.000000 0.000000 -0.000000 0.000000 -65.658213 -0.000000 0.000000 0.000000 -0.000000 0.000000 0.000000 0.000000 0.000000 0.000000
55.348657 65.042121 223.493381 -0.114999 -0.063079 65.607717 0.104941 -0.078683 -65.607708 -0.000000 0.000000 0.000000 -0.000000 0.000000 0.000000 0.000000 0.000000 0.000000 -0.000000 0.000000 0.000000 -0.000000 0.000000 0.000000 0.507231 -1.056418 0.249644 -0.102000 7.536324 1.075650 0.000000 0.000000 0.000000 0.000000 0.000000 0.000000 -0.000000 0.000000 0.000000 -0.000000 0.000000 0.000000 -0.000000 0.000000 0.000000 -1.814858 -0.858896 -0.092112 0.000000 0.000000 0.000000 0.000000 0.000000 0.000000 0.104941 -0.078683 -65.607708 -0.000000 0.000000 0.000000 1.546598 0.859389 0.409933 0.000000 0.000000 0.000000 0.104941 -0.078683 -65.607708 -0.000000 0.000000 0.000000 -0.000000 0.000000 0.000000 0.000000 0.000000 0.000000
55.248748 65.004543 223.538156 -0.215108 -0.120211 65.564398 0.198427 -0.146113 -65.564371 -0.000000 0.000000 0.000000 -0.000000 0.000000 0.000000 0.000000 0.000000 0.000000 -0.000000 0.000000 0.000000 -0.000000 0.000000 0.000000 0.887222 -1.942668 0.474675 -0.186468 14.415343 2.054700 0.000000 0.000000 0.000000 0.000000 0.000000 0.000000 -0.000000 0.000000 0.000000 -0.000000 0.000000 0.000000 0.337783 -0.797118 0.190135 -3.449974 -0.777461 -0.301963 0.000000 0.000000 0.000000 0.000000 0.000000 0.000000 0.198427 -0.146113 -65.564371 -0.000000 0.000000 0.000000 2.745108 1.530667 0.742118 0.000000 0.000000 0.000000 0.198427 -0.146113 -65.564371 -0.000000 0.000000 0.000000 -0.000000 0.000000 0.000000 0.000000 0.000000 0.000000
55.162655 64.970063 223.583455 -0.300377 -0.171417 65.528645 0.280447 -0.202387 -65.528599 -0.000000 0.000000 0.000000 -0.000000 0.000000 0.000000 0.000000 0.000000 0.000000 -0.000000 0.000000 0.000000 -0.000000 0.000000 0.000000 1.146205 -2.674268 0.673984 -0.254266 20.215781 2.873133 0.000000 0.000000 0.000000 0.000000 0.000000 0.000000 -0.000000 0.000000 0.000000 -0.000000 0.000000 0.000000 0.419250 -1.148027 0.251154 -4.339939 -1.026229 -0.356306 0.000000 0.000000 0.000000 0.000000 0.000000 0.000000 0.280447 -0.202387 -65.528599 -0.000000 0.000000 0.000000 3.582945 1.999840 1.005398 0.000000 0.000000 0.000000 0.280447 -0.202387 -65.528599 -0.000000 0.000000 0.000000 -0.043231 -0.826234 0.435020 0.000000 0.000000 0.000000
55.090377 64.938683 223.629276 -0.370847 -0.216721 65.500788 0.350992 -0.247590 -65.500731 -0.000000 0.000000 0.000000 -0.000000 0.000000 0.000000 0.000000 0.000000 0.000000 -0.000000 0.000000 0.000000 -0.000000 0.000000 0.000000 1.287783 -3.262937 0.847026 -0.284061 24.613407 3.471866 0.000000 0.000000 0.000000 0.000000 0.000000 0.000000 -0.000000 0.000000 0.000000 -0.000000 0.000000 0.000000 0.444175 -1.469508 0.289583 -4.709201 -1.197367 -0.349987 0.000000 0.000000 0.000000 0.000000 0.000000 0.000000 0.350992 -0.247590 -65.500731 -0.000000 0.000000 0.000000 4.052339 2.257428 1.206401 0.000000 0.000000 0.000000 1.248607 -0.653556 -65.473153 -0.741926 -0.648103 -0.024715 0.153601 -1.042651 0.526528 0.000000 0.000000 0.000000
55.031914 64.910402 223.675621 -0.426553 -0.256138 65.481099 0.410056 -0.281793 -65.481044 -0.000000 0.000000 0.000000 -0.804308 -0.222836 0.139049 0.000000 0.000000 0.000000 -0.000000 0.000000 0.000000 -0.000000 0.000000 0.000000 1.313045 -3.716926 0.993611 -0.245078 27.398533 3.800477 0.000000 0.000000 0.000000 0.000000 0.000000 0.000000 -0.000000 0.000000 0.000000 -0.000000 0.000000 0.000000 0.413516 -1.763002 0.305476 -4.575143 -1.297695 -0.286350 0.000000 0.000000 0.000000 0.000000 0.000000 0.000000 0.410056 -0.281793 -65.481044 -0.000000 0.000000 0.000000 4.149441 2.297790 1.348701 0.000000 0.000000 0.000000 1.415138 -0.762025 -65.454406 -0.854321 -0.714768 -0.022811 0.456772 -1.229219 0.592022 0.000000 0.000000 0.000000
54.992162 64.887817 223.718368 -0.460869 -0.280516 65.480656 0.446480 -0.302895 -65.480604 -0.000000 0.000000 0.000000 -0.922107 -0.269235 0.150779 0.000000 0.000000 0.000000 -0.000000 0.000000 0.000000 -0.000000 0.000000 0.000000 1.057286 -4.158480 1.174779 0.402532 30.854189 4.085955 0.000000 0.000000 0.000000 0.000000 0.000000 0.000000 -0.000000 0.000000 0.000000 -0.000000 0.000000 0.000000 0.123050 -1.914058 0.214301 -2.616716 -1.879010 0.080361 0.000000 0.000000 0.000000 0.000000 0.000000 0.000000 0.446480 -0.302895 -65.480604 -0.000000 0.000000 0.000000 2.948702 1.594297 1.151510 0.000000 0.000000 0.000000 1.464593 -0.844451 -65.464281 -0.915387 -0.701308 -0.011732 1.103098 -1.450820 0.641566 0.000000 0.000000 0.000000
54.959184 64.865524 223.767425 -0.487490 -0.308187 65.473166 0.482744 -0.315570 -65.473148 -0.000000 0.000000 0.000000 -0.987906 -0.327574 0.137270 0.000000 0.000000 0.000000 -0.000000 0.000000 0.000000 -0.000000 0.000000 0.000000 1.249371 -4.305791 1.197434 -0.570524 32.054884 4.632300 0.000000 0.000000 0.000000 0.000000 0.000000 0.000000 -0.000000 0.000000 0.000000 -0.000000 0.000000 0.000000 -0.068285 -2.131190 0.164203 -0.926135 -1.932532 0.337486 0.000000 0.000000 0.000000 0.000000 0.000000 0.000000 0.482744 -0.315570 -65.473148 -0.000000 0.000000 0.000000 2.318449 1.207505 1.171393 0.000000 0.000000 0.000000 1.530342 -0.918851 -65.465268 -0.983762 -0.702519 -0.002626 1.810156 -1.523691 0.607082 0.000000 0.000000 0.000000
54.950464 64.845989 223.817221 -0.486932 -0.329960 65.468145 0.502347 -0.305979 -65.468206 -0.000000 0.000000 0.000000 -1.011552 -0.357407 0.126914 0.000000 0.000000 0.000000 -0.000000 0.000000 0.000000 -0.000000 0.000000 0.000000 0.988628 -4.265123 1.219167 0.032886 32.853094 4.623649 0.000000 0.000000 0.000000 0.000000 0.000000 0.000000 -0.000000 0.000000 0.000000 -0.000000 0.000000 0.000000 -0.237869 -2.437949 0.129118 -0.199787 -1.364320 0.391695 0.000000 0.000000 0.000000 0.000000 0.000000 0.000000 0.502347 -0.305979 -65.468206 -0.000000 0.000000 0.000000 1.663022 0.780682 1.338187 0.000000 0.000000 0.000000 1.506568 -0.934748 -65.471221 -0.988871 -0.652578 0.008257 2.335138 -1.713382 0.656233 0.000000 0.000000 0.000000
54.948576 64.827207 223.866723 -0.486063 -0.348026 65.468811 0.518417 -0.297694 -65.468940 -0.000000 0.000000 0.000000 -1.024665 -0.389898 0.111302 0.000000 0.000000 0.000000 -0.000000 0.000000 0.000000 -0.000000 0.000000 0.000000 0.806303 -4.495789 1.319221 -3.606090 33.018096 6.204190 0.000000 0.000000 0.000000 0.000000 0.000000 0.000000 -0.000000 0.000000 0.000000 -0.000000 0.000000 0.000000 -0.433924 -2.589692 0.070376 0.846151 -0.999986 0.497049 0.000000 0.000000 0.000000 0.000000 0.000000 0.000000 0.518417 -0.297694 -65.468940 -0.000000 0.000000 0.000000 1.117171 0.464378 1.227725 0.000000 0.000000 0.000000 1.450970 -0.949396 -65.485930 -0.979837 -0.578108 0.022196 2.555943 -1.886239 0.728783 0.000000 0.000000 0.000000
54.950219 64.816538 223.908208 -0.479617 -0.348264 65.461671 0.515994 -0.291667 -65.461815 -0.000000 0.000000 0.000000 -1.148964 -0.470574 0.103734 0.000000 0.000000 0.000000 -0.000000 0.000000 0.000000 -0.000000 0.000000 0.000000 1.126852 -4.862360 1.397867 -3.189911 27.687508 4.498962 0.000000 0.000000 0.000000 0.000000 0.000000 0.000000 -0.000000 0.000000 0.000000 -0.000000 0.000000 0.000000 -0.407718 -2.672167 0.086965 0.446153 -0.892096 0.439070 0.000000 0.000000 0.000000 0.000000 0.000000 0.000000 0.515994 -0.291667 -65.461815 -0.000000 0.000000 0.000000 0.982072 0.424763 0.972329 0.000000 0.000000 0.000000 1.378789 -0.924129 -65.484003 -0.933412 -0.522588 0.027086 2.988292 -2.040243 0.770721 0.000000 0.000000 0.000000
54.953388 64.820896 223.955533 -0.444501 -0.326497 65.448268 0.481673 -0.268650 -65.448405 -0.000000 0.000000 0.000000 -1.253673 -0.402564 0.181681 0.000000 0.000000 0.000000 -0.000000 0.000000 0.000000 -0.000000 0.000000 0.000000 1.271748 -4.734506 1.336657 -2.728206 21.347303 2.890144 0.000000 0.000000 0.000000 0.000000 0.000000 0.000000 -0.000000 0.000000 0.000000 -0.000000 0.000000 0.000000 0.083836 -2.952638 0.292168 -1.367336 -0.435885 0.107541 0.000000 0.000000 0.000000 0.000000 0.000000 0.000000 0.481673 -0.268650 -65.448405 -0.000000 0.000000 0.000000 0.761501 0.309913 0.857532 0.000000 0.000000 0.000000 1.254420 -0.924425 -65.487260 -0.917241 -0.431036 0.043450 3.367537 -2.469088 0.973349 0.000000 0.000000 0.000000
54.960093 64.821742 224.021060 -0.432947 -0.333437 65.588755 0.482556 -0.256441 -65.588935 -0.000000 0.000000 0.000000 -1.649011 -0.587810 0.201246 0.000000 0.000000 0.000000 -0.000000 0.000000 0.000000 -0.000000 0.000000 0.000000 1.400245 -4.820502 1.348527 0.037911 20.291966 1.663176 0.000000 0.000000 0.000000 0.000000 0.000000 0.000000 -0.000000 0.000000 0.000000 -0.000000 0.000000 0.000000 0.623511 -3.428261 0.535466 -1.616571 0.709061 -0.162467 0.000000 0.000000 0.000000 0.000000 0.000000 0.000000 0.482556 -0.256441 -65.588935 0.717694 0.984358 0.220754 -0.011849 -0.682643 0.496642 0.000000 0.000000 0.000000 1.221135 -0.977534 -65.645042 -0.961465 -0.375500 0.060910 3.701066 -2.314557 0.854363 0.000000 0.000000 0.000000
54.994466 64.802986 224.048644 -0.448925 -0.355538 65.621825 0.509134 -0.262150 -65.622053 -0.000000 0.000000 0.000000 -2.303473 -1.289957 -0.020240 0.000000 0.000000 0.000000 -0.000000 0.000000 0.000000 -0.000000 0.000000 0.000000 0.998400 -5.353530 1.576507 3.440032 23.266679 0.839626 0.000000 0.000000 0.000000 0.000000 0.000000 0.000000 -0.000000 0.000000 0.000000 -0.000000 0.000000 0.000000 0.475209 -2.930883 0.434750 -0.738670 0.130908 -0.007864 0.000000 0.000000 0.000000 0.000000 0.000000 0.000000 0.509134 -0.262150 -65.622053 0.456711 0.727839 0.180803 -0.998801 -1.204758 0.650594 0.000000 0.000000 0.000000 1.149764 -1.010329 -65.696143 -0.945509 -0.275939 0.078927 3.598154 -1.910872 0.637035 0.000000 0.000000 0.000000
